Coordinates
version=1
nRows=16
nColumns=40
inDegrees=yes

Units are S.I. units (second, meters, Newtons, ...)
Angles are in degrees.

endheader
time	pelvis_tilt	pelvis_list	pelvis_rotation	pelvis_tx	pelvis_ty	pelvis_tz	hip_flexion_r	hip_adduction_r	hip_rotation_r	knee_angle_r	knee_angle_r_beta	ankle_angle_r	subtalar_angle_r	mtp_angle_r	hip_flexion_l	hip_adduction_l	hip_rotation_l	knee_angle_l	knee_angle_l_beta	ankle_angle_l	subtalar_angle_l	mtp_angle_l	lumbar_extension	lumbar_bending	lumbar_rotation	arm_flex_r	arm_add_r	arm_rot_r	elbow_flex_r	pro_sup_r	wrist_flex_r	wrist_dev_r	arm_flex_l	arm_add_l	arm_rot_l	elbow_flex_l	pro_sup_l	wrist_flex_l	wrist_dev_l
      7.71000000	     -4.72347492	     -3.03533981	      4.61330615	      0.84263781	      0.92048818	      0.44782821	      3.36857623	     -1.59849381	    -14.04346802	     28.99025081	     28.99025081	     17.27118845	     -8.32841640	     -3.77676788	     26.12231050	     -1.64691888	     -2.63166315	     23.51821128	     23.51821128	      5.25521993	    -15.05292857	      1.56100407	     -7.00153692	      1.80423293	      4.75968194	     26.91503883	    -13.36905202	     -2.30439755	     94.06554282	     44.54503596	      0.00000000	      0.00000000	      0.31176536	     -8.55820467	      1.65131612	     29.85402105	     45.89298501	      0.00000000	      0.00000000
      7.72200000	     -4.69359064	     -3.04391085	      4.36918871	      0.84224003	      0.92161402	      0.44599206	      4.96444964	     -2.05758114	    -13.20649906	     32.49909953	     32.49909953	     14.70605327	    -11.16297761	     -7.13592847	     25.49973501	     -1.69708559	     -2.99336579	     23.42603543	     23.42603543	      5.88588755	    -14.67581363	      1.34834825	     -6.99771202	      1.78700037	      3.78762629	     26.95054893	    -12.85152618	      0.01932331	     89.78712448	     44.64394432	      0.00000000	      0.00000000	      0.80139794	     -8.63867491	      1.19415080	     30.20944415	     45.94876101	      0.00000000	      0.00000000
      7.73400000	     -4.60338767	     -2.82499746	      4.08242193	      0.84183082	      0.92263384	      0.44399309	      6.79000227	     -2.98496319	    -12.76763490	     36.68664684	     36.68664684	     13.21287323	    -12.46640340	     -7.65652401	     24.71901350	     -1.50018679	     -3.46139338	     23.21504423	     23.21504423	      6.38381273	    -14.43331605	      1.07015771	     -7.22121527	      1.56630166	      3.88064119	     25.54910236	    -12.85172798	      0.45217193	     88.53061052	     44.66945901	      0.00000000	      0.00000000	      1.89770853	     -8.67098031	      1.09603727	     30.80908818	     45.97756142	      0.00000000	      0.00000000
      7.74600000	     -4.56223513	     -2.68300191	      3.81989348	      0.84125991	      0.92346795	      0.44213528	      8.76514134	     -3.74187629	    -12.20448686	     40.84702764	     40.84702764	     11.41149347	    -14.04177102	     -7.90305454	     24.01436287	     -1.37470978	     -3.88992385	     22.99606498	     22.99606498	      6.83640862	    -14.14416638	      0.75177603	     -7.36503628	      1.38290762	      3.96682327	     24.16375475	    -12.85561086	      0.93176730	     86.78439467	     44.70898424	      0.00000000	      0.00000000	      3.00476104	     -8.69544652	      1.06224021	     31.38494775	     45.99691556	      0.00000000	      0.00000000
      7.75800000	     -4.49599820	     -2.55161016	      3.58171572	      0.84068797	      0.92417620	      0.44024718	     10.75152500	     -4.43951167	    -11.61795728	     44.90858961	     44.90858961	      9.49596815	    -15.54039848	     -7.84213993	     23.30513842	     -1.24461888	     -4.30189042	     22.80880182	     22.80880182	      7.28119292	    -13.87430529	      0.39954956	     -7.51891338	      1.27742213	      3.97938375	     22.82139394	    -12.81474080	      1.42269285	     84.75866720	     44.75690717	      0.00000000	      0.00000000	      4.12088297	     -8.75192163	      1.08379211	     31.95509655	     46.00851203	      0.00000000	      0.00000000
      7.77000000	     -4.43025002	     -2.58576575	      3.33768988	      0.84006525	      0.92476920	      0.43855009	     12.75973114	     -4.83728126	    -10.97245332	     48.78483046	     48.78483046	      7.88149545	    -16.86423972	     -6.46121219	     22.67637270	     -1.32689911	     -4.73780451	     22.72388894	     22.72388894	      7.58744591	    -13.51091800	     -0.41200407	     -7.48004951	      1.33866501	      3.49956803	     22.56867304	    -12.37609437	      2.45664542	     79.52714367	     44.90664834	      0.00000000	      0.00000000	      4.84564853	     -9.01615714	      1.49486463	     32.70898106	     45.95153749	      0.00000000	      0.00000000
      7.78200000	     -4.37253314	     -2.44185367	      3.14579762	      0.83939014	      0.92519304	      0.43669625	     14.86683938	     -5.49217328	    -10.46370807	     52.73004519	     52.73004519	      7.30427609	    -17.16001726	     -2.78226456	     21.98049026	     -1.13759422	     -5.02170668	     22.49044147	     22.49044147	      7.80013636	    -13.42904933	     -1.03003074	     -7.55687979	      1.23790811	      2.61355912	     22.12673970	    -11.89635083	      4.03903392	     75.82798956	     45.00062613	      0.00000000	      0.00000000	      5.08389414	     -9.55830000	      2.05792989	     34.43140190	     45.86695363	      0.00000000	      0.00000000
      7.79400000	     -4.22594581	     -2.30339994	      2.97316141	      0.83874787	      0.92566172	      0.43478795	     16.66680825	     -6.13717210	    -10.10124176	     56.01565701	     56.01565701	      5.81599967	    -17.82935939	     -2.37097410	     21.26975536	     -0.95129322	     -5.26149334	     22.41704275	     22.41704275	      8.19937448	    -13.31300388	     -1.22208556	     -7.81696639	      1.19402550	      2.60733861	     20.46570257	    -11.93681311	      4.33017082	     74.34240721	     45.03448443	      0.00000000	      0.00000000	      6.28783310	     -9.66501119	      2.06149814	     35.02987424	     45.88449006	      0.00000000	      0.00000000
      7.80600000	     -4.19608812	     -2.31094235	      2.79424870	      0.83802578	      0.92600434	      0.43312937	     18.68184983	     -6.44850521	     -9.58555888	     59.20371647	     59.20371647	      5.84941435	    -17.88058280	      1.99507140	     20.70327365	     -0.92988410	     -5.49741502	     22.33627135	     22.33627135	      8.59451903	    -13.13154514	     -1.50782599	     -7.74770863	      1.25690279	      2.25154307	     20.04282131	    -11.38339651	      4.51481964	     68.82864775	     45.21883167	      0.00000000	      0.00000000	      7.06368773	    -10.04945753	      3.06321837	     35.97239304	     45.77224479	      0.00000000	      0.00000000
      7.81800000	     -4.09969902	     -2.29058985	      2.62950341	      0.83734908	      0.92644901	      0.43137598	     20.37534799	     -6.85185177	     -9.30916020	     61.68272513	     61.68272513	      5.05536787	    -18.15618442	      2.74702572	     20.06896268	     -0.85555055	     -5.67447425	     22.26745681	     22.26745681	      8.96687735	    -13.06719926	     -1.63392586	     -7.91478309	      1.34075522	      2.55577434	     18.33195451	    -11.79026090	      4.80052803	     66.54593852	     45.27901672	      0.00000000	      0.00000000	      8.28339657	    -10.03840493	      3.20930664	     36.95032093	     45.77595139	      0.00000000	      0.00000000
      7.83000000	     -3.97171960	     -2.33151775	      2.48162129	      0.83671228	      0.92698590	      0.42977295	     21.99527501	     -7.05630570	     -8.97709876	     63.83522130	     63.83522130	      5.12320366	    -18.19507829	      5.20445925	     19.40562436	     -0.86011388	     -5.82452096	     22.21133266	     22.21133266	      9.42289297	    -12.87569597	     -1.71798604	     -7.99060279	      1.50094859	      2.09794857	     17.77546334	    -11.21404642	      4.85446695	     61.50691837	     45.44405658	      0.00000000	      0.00000000	      8.94982548	    -10.55067640	      4.18806272	     38.09559486	     45.68210039	      0.00000000	      0.00000000
      7.84200000	     -3.84908957	     -2.39129244	      2.32062723	      0.83613495	      0.92759690	      0.42824150	     23.44659422	     -7.22909154	     -8.76191252	     65.42537054	     65.42537054	      5.07381135	    -18.22449013	      6.27664753	     18.72123389	     -0.88456218	     -5.99231602	     22.10903313	     22.10903313	      9.86363391	    -12.68923865	     -1.73276642	     -8.11652895	      1.68940906	      2.01293504	     16.67959104	    -11.14865592	      4.95785159	     57.57285342	     45.56194486	      0.00000000	      0.00000000	      9.73930902	    -10.86719346	      4.84115256	     39.46058536	     45.64088404	      0.00000000	      0.00000000
      7.85400000	     -3.67797930	     -2.51005367	      2.14068520	      0.83563988	      0.92839610	      0.42681845	     24.67907542	     -7.31147482	     -8.66088849	     66.45475141	     66.45475141	      4.95107834	    -18.27474096	      6.44884782	     17.94439583	     -0.97814645	     -6.16506654	     21.94108461	     21.94108461	     10.26810070	    -12.49083227	     -1.80353392	     -8.31882024	      1.94550399	      2.38012061	     15.00123320	    -11.51744476	      5.00481130	     54.69116874	     45.64782245	      0.00000000	      0.00000000	     10.83886325	    -10.85491689	      4.98918508	     40.54351359	     45.65227615	      0.00000000	      0.00000000
      7.86600000	     -3.57490765	     -2.59044106	      1.92294871	      0.83520072	      0.92920189	      0.42555334	     25.88646306	     -7.36742054	     -8.52809321	     67.04430567	     67.04430567	      4.94887779	    -18.25625927	      6.48722370	     17.15976398	     -1.04219438	     -6.41384727	     21.63847257	     21.63847257	     10.62641548	    -12.21225971	     -1.86434359	     -8.44016451	      2.15889464	      2.72363565	     13.32855207	    -11.88058803	      4.98881219	     51.83821511	     45.73784426	      0.00000000	      0.00000000	     11.85552736	    -10.82835459	      5.07602915	     41.58804595	     45.66688020	      0.00000000	      0.00000000
      7.87800000	     -3.36178702	     -2.72798400	      1.68275270	      0.83489201	      0.93024462	      0.42447609	     26.79819763	     -7.30547412	     -8.48215344	     67.10154172	     67.10154172	      5.05810611	    -18.21392266	      6.53245966	     16.24257217	     -1.20583002	     -6.77890391	     21.33782158	     21.33782158	     11.03062424	    -11.79792829	     -1.96680979	     -8.66489729	      2.40138643	      2.96611274	     12.09691629	    -11.98377203	      4.72176272	     47.76926918	     45.88406946	      0.00000000	      0.00000000	     12.71644012	    -10.97059501	      5.28509986	     42.87859620	     45.67210496	      0.00000000	      0.00000000
      7.89000000	     -3.25226265	     -2.90974942	      1.51087793	      0.83465393	      0.93118644	      0.42345327	     27.68234355	     -7.19554225	     -8.55988925	     66.72216128	     66.72216128	      5.16816695	    -18.13605169	      6.42403695	     15.40396886	     -1.41181325	     -7.11849084	     20.97832650	     20.97832650	     11.46308251	    -11.14135554	     -2.07544060	     -8.65652992	      2.72410778	      2.19262590	     12.19389671	    -11.09696340	      3.67467539	     41.23857632	     46.15279925	      0.00000000	      0.00000000	     12.67441800	    -11.68320544	      5.68313640	     44.85420734	     45.67395560	      0.00000000	      0.00000000
